<svg xmlns="http://www.w3.org/2000/svg" viewBox="0 0 96 32" role="img" aria-label="bKash">
  <rect x="1" y="1" width="94" height="30" rx="10" fill="none" stroke="currentColor" opacity=".25"/>
  <path fill="#d81b60" d="M21 10c5 0 8.6 2.5 8.6 6.1c0 2.3-1.4 4-3.6 4.9l3.1 3.9h-4.7l-2.5-3.1h-2.1v3.1h-4V10zm-1.2 3.2v5.2h1.7c2.1 0 3.8-1 3.8-2.6s-1.6-2.6-3.8-2.6z"/>
  <path fill="currentColor" d="M39.5 22.6c-2.6 0-4.5-1.7-4.5-4.2s1.9-4.2 4.5-4.2c1 0 2 .3 2.7.9l-1.3 2c-.4-.3-.8-.5-1.3-.5-1 0-1.7.8-1.7 1.8s.7 1.8 1.7 1.8c.5 0 1-.2 1.3-.5l1.3 2c-.7.6-1.7.9-2.7.9z"/>
  <path fill="currentColor" d="M45.2 22.4v-10h3v5.2l2.1-2.9h3.6l-2.9 3.7l3.1 4h-3.7l-1.7-2.5l-.5.6v1.9z"/>
</svg>

