<svg xmlns="http://www.w3.org/2000/svg" viewBox="0 0 96 32" role="img" aria-label="Cash on delivery">
  <rect x="1" y="1" width="94" height="30" rx="10" fill="none" stroke="currentColor" opacity=".25"/>
  <path fill="currentColor" d="M19 22.5c-3.4 0-6-2.3-6-5.7S15.6 11 19 11c1.4 0 2.7.4 3.7 1.2l-1.4 2c-.6-.5-1.3-.7-2.1-.7-1.7 0-3 1.4-3 3.3s1.3 3.3 3 3.3c.8 0 1.6-.3 2.1-.7l1.4 2c-1 .8-2.3 1.2-3.7 1.2z"/>
  <path fill="currentColor" d="M28 22.3v-11h3v8.5h4.9v2.5z"/>
  <path fill="currentColor" d="M40 22.5c-3.2 0-5.6-2.3-5.6-5.7S36.8 11 40 11s5.6 2.3 5.6 5.7-2.4 5.8-5.6 5.8zm0-2.6c1.5 0 2.6-1.4 2.6-3.2S41.5 13.5 40 13.5s-2.6 1.4-2.6 3.2 1.1 3.2 2.6 3.2z"/>
  <path fill="currentColor" d="M52.7 22.3h-4.4v-11h4.4c3.4 0 5.9 2.2 5.9 5.5s-2.5 5.5-5.9 5.5zm-1.4-2.6h1.2c1.7 0 3.1-1.2 3.1-2.9s-1.4-2.9-3.1-2.9h-1.2z"/>
  <path fill="#F4A460" d="M74 10.5a6.5 6.5 0 1 1 0 13a6.5 6.5 0 0 1 0-13z" opacity=".9"/>
  <path fill="#FDFEF8" d="M73.2 20.7V13h1.6c1.7 0 2.9 1.1 2.9 2.7s-1.2 2.7-2.9 2.7h-.6v2.3z"/>
</svg>

