<svg xmlns="http://www.w3.org/2000/svg" viewBox="0 0 32 32" role="img" aria-label="Instagram">
  <path fill="currentColor" d="M16 11.7A4.3 4.3 0 1 0 20.3 16 4.3 4.3 0 0 0 16 11.7m0 7A2.7 2.7 0 1 1 18.7 16 2.7 2.7 0 0 1 16 18.7m5.4-7.1a1 1 0 1 1-1-1 1 1 0 0 1 1 1"/>
  <path fill="currentColor" d="M21.7 7.8H10.3A2.5 2.5 0 0 0 7.8 10.3v11.4a2.5 2.5 0 0 0 2.5 2.5h11.4a2.5 2.5 0 0 0 2.5-2.5V10.3a2.5 2.5 0 0 0-2.5-2.5m.9 13.9a.9.9 0 0 1-.9.9H10.3a.9.9 0 0 1-.9-.9V10.3a.9.9 0 0 1 .9-.9h11.4a.9.9 0 0 1 .9.9z"/>
</svg>

