<svg xmlns="http://www.w3.org/2000/svg" viewBox="0 0 64 64" role="img" aria-label="LeafMart logo">
  <defs>
    <linearGradient id="g" x1="0" y1="0" x2="1" y2="1">
      <stop offset="0" stop-color="#8FBC8F"/>
      <stop offset="1" stop-color="#4A7C59"/>
    </linearGradient>
  </defs>
  <rect x="2" y="2" width="60" height="60" rx="18" fill="url(#g)"/>
  <path d="M46.5 17.5c-9.8 1.1-18.5 6.4-23.8 14.6-4.6 7.1-5.9 15.4-3.9 23.1 8.6 1.6 17.4-.6 24.5-6.2 8.1-6.4 12.7-16.3 12.2-26.4-3.4 2.9-7.2 5.2-11.3 6.8-4.8 1.8-9.8 2.6-14.9 2.3 4.9-1.9 9.2-4.9 12.8-8.9 2.9-3.2 4.8-6.9 5.7-10.8z" fill="#FDFEF8" opacity="0.92"/>
  <path d="M22 48c6.2-9.2 14.4-16.7 24.4-22.2" fill="none" stroke="#2C3E2F" stroke-width="3.2" stroke-linecap="round" opacity="0.55"/>
</svg>

