<svg xmlns="http://www.w3.org/2000/svg" viewBox="0 0 96 32" role="img" aria-label="Nagad">
  <rect x="1" y="1" width="94" height="30" rx="10" fill="none" stroke="currentColor" opacity=".25"/>
  <path fill="#ff6f00" d="M16 10h7.5c3.8 0 6.6 2.4 6.6 6s-2.8 6-6.6 6H16V10zm4 3v6h3.2c1.8 0 3.1-1.2 3.1-3s-1.3-3-3.1-3z"/>
  <path fill="currentColor" d="M40.2 22.6c-2.5 0-4.4-1.7-4.4-4.2s1.9-4.2 4.4-4.2c1.2 0 2.3.4 3 1.1v-2.9h3v10h-2.8l-.1-.9c-.7.7-1.8 1.1-3.1 1.1zm.8-2.5c1.2 0 2.2-.8 2.2-1.7s-1-1.7-2.2-1.7-2.2.8-2.2 1.7 1 1.7 2.2 1.7z"/>
  <path fill="currentColor" d="M53.2 22.6c-2.6 0-4.5-1.7-4.5-4.2s1.9-4.2 4.5-4.2c1 0 2 .3 2.7.9l-1.3 2c-.4-.3-.8-.5-1.3-.5-1 0-1.7.8-1.7 1.8s.7 1.8 1.7 1.8c.5 0 1-.2 1.3-.5l1.3 2c-.7.6-1.7.9-2.7.9z"/>
</svg>

