<svg xmlns="http://www.w3.org/2000/svg" viewBox="0 0 96 32" role="img" aria-label="VISA">
  <rect x="1" y="1" width="94" height="30" rx="10" fill="none" stroke="currentColor" opacity=".25"/>
  <path fill="currentColor" d="M18.8 22.8h-4.2L12 9.2h4.2l1.6 9.1 4-9.1h4.2l-7.2 13.6zM29.2 9.2h4l-2.5 13.6h-4zM46.7 9.5c-.8-.3-2.1-.7-3.7-.7-4.1 0-7 2-7 4.9 0 2.1 2.1 3.3 3.7 4 .5.2.9.4.9.7 0 .5-.7.7-1.4.7-1.2 0-2.8-.4-3.8-.9l-.5 2.7c1.1.5 3 .9 5 .9 4.3 0 7.1-2 7.1-5.1 0-1.6-1.1-2.9-3.4-3.9-.6-.3-1.2-.6-1.2-.9 0-.3.4-.6 1.4-.6 1 0 2.2.3 3 .6l.3-2.4zM56.9 9.2h3.5l2.8 13.6H59.4l-.3-1.7h-4.1l-.7 1.7h-4.1l6.7-13.6zm1.7 9.1-.6-3.4-1.4 3.4h2z"/>
</svg>

